<?xml version="1.0" encoding="UTF-8"?>
<svg id="Layer_1" xmlns="http://www.w3.org/2000/svg" version="1.1" viewBox="0 0 283.46 283.46">
  <!-- Generator: Adobe Illustrator 30.1.0, SVG Export Plug-In . SVG Version: 2.1.1 Build 136)  -->
  <defs>
    <style>
      .st0 {
        fill: #cf7151;
      }

      .st1 {
        fill: #fbe9e2;
      }
    </style>
  </defs>
  <path class="st1" d="M225.26,76.33c2.6,8.19.31,5.86,4.58,13.76,1.97,3.65,4.8,6.58,7.66,9.52.37.39.61.82,1.07.92-.03,2.7.1,5.2-.54,7.76-.7,2.8-1.55,5.48-2.44,8.23l-2.41,7.39c-1.25,3.84-1.49,7.51-1.54,11.55-.07,6.48,1.2,12.69,4.27,18.3-4.59,2.53-4.18,8.38-3.69,13.09.97,9.36-1.24,15.24-5.58,23.2-3.3,6.04-7.96,11.88-13.55,15.94-2.1,1.53-4.07,3.09-6.41,4.27-.37.19-.7.39-.83.71-3.42-.4-6.54-.62-9.75-1.82l-8.26-3.09c-5-1.87-9.8-3.7-14.97-5.12-6.55-1.8-13.02-3.16-19.82-3.46-3.34-.15-6.5.1-9.81.5-6.46.77-12.49,2.77-18.44,5.23l-4.82,1.99c-4.36,1.8-8.38,4.25-12.73,5.77-.11-.31-.7-.12-1.01,0-9.6,3.95-20.41,6.21-30.85,4.87-4.3-.55-8.46-2.78-11.58-5.71-1.52-1.42-2.58-3.18-3.61-4.9-2.94-4.92-4.57-11.93-6.07-17.5-1.18-4.39-2.26-8.66-2.45-13.22l-.47-11.13c-.02-.37-.04-.67-.26-.85,2.61-5.02,3.25-10.7,3.14-16.25-.08-4.06-1.53-7.63-4.24-10.55-5.08-5.47-9.83-7.43-13.09-10.71-2.18-2.2-3.7-5.31-3.63-8.51.08-3.49.98-6.84,2.37-10,1.59-3.6,4-6.64,7.04-9.16,3.77-3.13,7.91-5.62,12.36-7.69,7.24-3.37,16.87-5.34,25.1-8.51,1.23-.47,7.71-2.7,7.48-3.96-.13-.69-1.53-1.03-2.51-.81l-5.89,1.32-9.93,2.73c-7.66,2.11-13.42,3.39-20.51,7.39-3.46,1.95-6.75,3.94-9.7,6.6-5.26,4.76-8.62,10.9-9.74,17.9-.08.52-.17,1.01-.42,1.33-.21-.11-.37-.39-.43-.73-.52-2.85-1.59-5.52-1.71-8.46-.21-5.16,1.11-10.13,3.04-14.87.99-2.43,2.02-4.65,3.6-6.72,1.7-2.23,3.38-4.41,5.46-6.32,2.26-2.08,4.55-4.05,7.2-5.65,6.05-3.67,13.16-5.7,20.3-6.05,7.68-.38,18.01.27,25.49,1.5-1.47,1.7-3.55,3-3.76,5.63-.06.71.33,1.4.72,1.68.64.47,1.32.33,1.94,0,2.72-1.44,6.23-5.13,8.44-7.43,1.08-1.12,1.94-2.4,3.18-3.21.72.16,1.39-.34,2.19-.43,6.29-.68,12.22-2.2,18.1-4.52,3.09-1.22,6.08-2.15,9.08-3.57,2.49-1.86,5.05-3.37,7.95-4.49.26-.1.41-.3.42-.49,4.21,1.13,7.9,2.8,11.71,4.81s7.47,4.21,10.91,7.01c3.9,3.17,8.28,5.34,12.97,7.06,2.77,1.01,5.47,1.89,8.45,2.02s5.65.24,8.51,0l9.19-.8c1.99-.17,4.01-.37,5.99.03,2.41.48,4.75.91,7.12,1.63,3.75,1.15,7.41,2.79,10.45,5.08Z"/>
  <path class="st0" d="M148.19,46.87c3.16,1.31,6.08,3.29,9.23,4.85,7.03,3.48,9.46,8.4,20.58,12.18,2.26.77,4.45,1.48,6.89,1.52s4.63.18,6.97-.03l11.56-1c2.96-.26,5.61.27,8.45.93,3.27.75,6.37,1.54,9.48,2.95,9.44,4.3,15.74,10.18,19.85,19.97,2.73,6.5,2.65,11.36,2.35,18.39-.78,3.82-1.75,7.56-3.1,11.34-1.23,3.44-3.52,10.11-3.62,13.56-.08,2.71-.06,5.34.02,8.05.06,2,1.61,9.25,3.23,10.71.42.95.87,2.06,1.51,3.04l6.01,9.22c2.31,3.55,3.9,7.4,5.32,11.44,2.26,6.41,2.83,13.32,1.28,19.93-.92,3.94-3.11,7.22-5.4,10.46-5.76,8.17-15.8,11.58-25.5,12.1-5.72.31-11.22.18-16.89-.3-4.07-.34-7.9-1.04-11.89-2.21-1.71-.5-3.44-1.39-5.21-2.07l-8.64-3.31c-4.6-1.77-9.18-3.15-14.11-4.21-4.48-.97-8.97-1.95-13.7-2.07-9.66-.24-17.5,1.63-26.26,5.36-2.02.86-3.93,1.44-5.89,2.46-7.05,3.65-14.3,6.39-21.68,9.29-5.22,2.05-10.19,3.67-15.75,4.57-5.12.83-10.02,1.47-15.27,1.33s-10.52-.85-15.44-2.96c-1.54-.66-2.72-1.71-4.06-2.67-2.6-1.86-4.79-4-6.69-6.57-1.36-1.84-2.74-3.54-3.7-5.65-4.23-9.39-2.87-22.21.88-31.51,1.26-3.13,3-5.83,4.49-8.83l3.18-6.41c1.66-3.35,2.54-6.85,2.78-10.62.12-1.92.52-3.85.05-5.93-.44-1.93-1.25-3.6-2.54-5.1-1.99-2.33-4.3-4.08-6.88-5.79-2.06-1.37-4.03-3.02-5.97-4.72-3.41-2.99-5.15-7.37-5.43-11.84-.06-1.02.32-2.02.14-3.07.25-.33.33-.82.42-1.33,1.13-7.01,4.48-13.15,9.74-17.9,2.94-2.66,6.23-4.65,9.7-6.6,7.09-4,12.85-5.28,20.51-7.39l9.93-2.73,5.89-1.32c.97-.22,2.38.13,2.51.81.23,1.26-6.25,3.48-7.48,3.96-8.23,3.17-17.86,5.14-25.1,8.51-4.46,2.07-8.59,4.56-12.36,7.69-3.04,2.52-5.45,5.56-7.04,9.16-1.39,3.16-2.29,6.5-2.37,10-.07,3.2,1.45,6.31,3.63,8.51,3.25,3.28,8.01,5.24,13.09,10.71,2.71,2.92,4.15,6.49,4.24,10.55.12,5.56-.53,11.23-3.14,16.25l-3.8,7.32c-1.45,2.79-2.99,5.35-4.09,8.32-2.96,7.96-4.64,20.01-.61,27.78,2.49,4.8,6.89,9.57,11.7,12.1,2.76,1.46,5.88,1.96,8.97,2.35,6.61.84,13.04.14,19.54-1.05,4.87-.89,9.35-2.06,13.86-4.06,3.56-1.57,7.28-2.49,10.75-4.32,4.36-1.52,8.37-3.97,12.73-5.77l4.82-1.99c5.95-2.46,11.99-4.46,18.44-5.23,3.31-.4,6.47-.64,9.81-.5,6.81.3,13.27,1.66,19.82,3.46,5.17,1.42,9.97,3.25,14.97,5.12l8.26,3.09c3.2,1.2,6.33,1.42,9.75,1.82,4.08.47,8.13.72,12.4.65s8.32-.19,12.49-1.29,8.22-2.88,11.42-6.11,5.86-7.07,7.02-11.44c1.49-5.65.79-11.67-1.09-17.12-1.28-3.71-3.03-7.02-4.85-10.44-1.34-2.52-5.29-7.73-7.34-11.46-3.07-5.6-4.34-11.82-4.27-18.3.04-4.03.29-7.71,1.54-11.55l2.41-7.39c.89-2.75,1.74-5.43,2.44-8.23.64-2.56.51-5.06.54-7.76.04-3.93-.79-7.74-2.52-11.43-2.33-4.96-5.9-9.97-10.78-12.78-3.04-2.28-6.69-3.93-10.45-5.08-2.37-.73-4.71-1.15-7.12-1.63-1.97-.4-3.99-.2-5.99-.03l-9.19.8c-2.86.25-5.65.13-8.51,0s-5.68-1-8.45-2.02c-4.69-1.72-9.07-3.89-12.97-7.06-3.44-2.79-7-4.95-10.91-7.01s-7.5-3.68-11.71-4.81-8.35-2.02-12.9-1.81c-2.65.12-5.38-.06-7.83,1.17-2.2,1.11-4.32,2.4-6.23,4.02-3.78,3.19-7.36,6.48-10.77,10.11-1.24.81-2.1,2.09-3.18,3.21-2.21,2.3-5.72,5.99-8.44,7.43-.62.33-1.3.46-1.94,0-.38-.28-.77-.96-.72-1.68.21-2.63,2.3-3.93,3.76-5.63,2.3-1.59,5.66-6.21,7.65-7.88,1.48-1.25,2.74-2.6,4.16-3.91l3.28-3.02c2.31-2.12,4.64-3.92,7.27-5.61s5.55-2.88,8.89-3.12c8.96-.63,16.84.61,25.22,4.08Z"/>
  <path class="st1" d="M221.33,68.26c-3.11-1.42-6.21-2.2-9.48-2.95-2.84-.65-5.49-1.18-8.45-.93l-11.56,1c-2.35.2-4.63.06-6.97.03s-4.62-.75-6.89-1.52c-11.12-3.77-13.55-8.7-20.58-12.18-3.14-1.56-6.07-3.54-9.23-4.85-.15-.12.05-.35.24-.44,5.34-1.4,10.61-3.1,16.16-3.2l7.81-.14c14.37-.26,21.69,2.99,24.76,3.32l3.15.34,3.96,1.88c3.13,1.48,5.78,2.98,7.91,5.7,1.31,1.68,2.73,3.18,3.95,4.99,1.67,2.5,3.34,4.88,4.75,7.56.25.47.55.88.46,1.37Z"/>
  <path class="st1" d="M240.05,150.28c-1.62-1.46-3.17-8.71-3.23-10.71-.08-2.71-.1-5.34-.02-8.05.11-3.44,2.39-10.12,3.62-13.56,1.35-3.78,2.32-7.53,3.1-11.34.1.05.32.05.46.22,2.23,2.87,4.5,5.6,6.26,8.81s2.96,6.65,3.62,10.28c1.25,6.85-2.12,13.61-6.96,18.31-2.25,2.18-4.34,4.38-6.86,6.04Z"/>
  <path class="st1" d="M194.5,213.97c.26.78-5.55.28-6.36.19-4.64-.5-8.99-2.13-13.03-4.38-2.61-1.46-5.07-2.82-7.53-4.53-.41-.29-1.02-.34-1.06-.86,4.93,1.06,9.51,2.44,14.11,4.21l8.64,3.31c1.78.68,3.5,1.56,5.21,2.07Z"/>
  <path class="st1" d="M49.41,150.09c-.06.07-.23.03-.27-.11-1.3-4.06-3.21-7.71-5.56-11.24-1.1-1.66-1.98-3.32-3.32-4.8-.18-.2-.15-.51-.22-.67,2.57,1.71,4.88,3.46,6.88,5.79,1.29,1.5,2.11,3.18,2.54,5.1.47,2.09.08,4.02-.05,5.93Z"/>
</svg>