<svg xmlns="http://www.w3.org/2000/svg" xmlns:xlink="http://www.w3.org/1999/xlink" width="1366" zoomAndPan="magnify" viewBox="0 0 1024.5 576" height="768" preserveAspectRatio="xMidYMid meet" version="1.0"><path fill="#d17050" d="M 121.472656 355.351562 C 132.324219 359.25 142.398438 363.082031 152.664062 366.460938 C 162.929688 369.839844 171.117188 376.40625 178.980469 383.355469 C 184.570312 388.296875 186.386719 394.792969 183.789062 402.007812 C 182.097656 406.75 180.28125 411.625 177.875 416.042969 C 169.039062 432.15625 154.351562 437.421875 136.808594 432.613281 C 113.9375 426.375 106.917969 417.40625 102.953125 389.335938 C 102.109375 383.421875 102.824219 377.3125 102.824219 370.296875 C 98.859375 370.816406 94.765625 370.882812 90.867188 371.855469 C 75.597656 375.558594 61.109375 380.691406 48.957031 391.480469 C 44.734375 395.183594 38.753906 397.132812 33.359375 399.210938 C 29.789062 400.578125 28.746094 399.148438 29.980469 395.445312 C 33.035156 386.019531 39.144531 377.769531 47.332031 372.117188 C 64.875 359.835938 83.71875 351.320312 105.8125 352.363281 C 107.046875 352.425781 109.0625 351.128906 109.515625 349.957031 C 121.082031 322.40625 138.691406 299.339844 159.160156 277.699219 C 182.488281 253.007812 210.5625 233.1875 241.6875 219.480469 C 268.71875 207.457031 296.007812 194.589844 325.054688 188.351562 C 369.628906 178.800781 414.660156 178.152344 459.824219 185.753906 C 506.867188 193.617188 553.003906 205.246094 599.269531 216.292969 C 629.9375 223.636719 660.675781 231.238281 692.191406 233.058594 C 716.425781 234.488281 740.859375 234.097656 765.160156 233.320312 C 784.527344 232.734375 803.890625 231.109375 823.125 228.511719 C 846.191406 225.390625 867.375 215.773438 888.6875 207.066406 C 916.433594 195.824219 938.980469 178.085938 955.421875 152.875 C 957.175781 150.210938 959.0625 147.546875 962.636719 149.039062 C 966.207031 150.535156 965.820312 154.042969 965.105469 156.902344 C 963.15625 165.480469 958.929688 173.40625 952.886719 179.839844 C 935.863281 197.773438 917.148438 213.304688 893.820312 222.597656 C 871.078125 231.695312 848.726562 241.960938 824.226562 245.535156 C 808.375 247.808594 792.324219 249.5 776.273438 250.34375 C 752.621094 251.511719 728.902344 252.554688 705.183594 252.097656 C 670.160156 251.449219 636.113281 243.457031 602.128906 235.789062 C 564.179688 227.339844 526.425781 217.527344 488.347656 209.472656 C 457.09375 202.84375 425.511719 197.449219 393.21875 198.488281 C 370.476562 199.269531 347.148438 198.621094 325.507812 205.507812 C 281.0625 219.671875 235.644531 232.539062 197.566406 261.195312 C 167.414062 283.875 141.550781 310.710938 125.371094 345.539062 C 123.878906 348.65625 122.839844 351.972656 121.472656 355.351562 Z M 117.183594 373.089844 C 114.652344 383.488281 116.601562 392.714844 119.523438 401.875 C 123.421875 413.832031 134.664062 421.175781 147.921875 420.589844 C 159.421875 420.070312 166.179688 413.636719 169.363281 400.121094 C 169.429688 399.992188 169.558594 399.796875 169.492188 399.667969 C 168.777344 397.78125 168.648438 395.183594 167.285156 394.078125 C 152.859375 382.253906 135.507812 377.25 117.183594 373.089844 Z M 117.183594 373.089844 " fill-opacity="1" fill-rule="nonzero"/></svg>